<?xml version="1.0" standalone="no"?><!DOCTYPE svg PUBLIC "-//W3C//DTD SVG 1.1//EN" "http://www.w3.org/Graphics/SVG/1.1/DTD/svg11.dtd"><svg t="1683723086317" class="icon" viewBox="0 0 1024 1024" version="1.1" xmlns="http://www.w3.org/2000/svg" p-id="4327" xmlns:xlink="http://www.w3.org/1999/xlink" width="32" height="32"><path d="M788.608 174.848a277.333333 277.333333 0 0 0-392.234667 0l-30.165333 30.165333a277.333333 277.333333 0 0 0 392.234667 392.192l30.165333-30.165333a277.333333 277.333333 0 0 0 0-392.192z" fill="#20BF6D" opacity=".4" p-id="4328"></path><path d="M849.92 228.864a256 256 0 0 0-362.026667 0l-301.696 301.696a256 256 0 1 0 362.026667 362.026667l301.696-301.653334a256 256 0 0 0 0-362.069333z" fill="#20BF6D" p-id="4329"></path><path d="M451.660221 433.987109m30.16989 30.16989l120.679557 120.679557q30.169889 30.169889 0 60.339779l0 0q-30.169889 30.169889-60.339779 0l-120.679557-120.679558q-30.169889-30.169889 0-60.339778l0 0q30.169889-30.169889 60.339779 0Z" fill="#FFFFFF" opacity=".9" p-id="4330"></path></svg>