<svg viewBox="0 0 1024 1024" xmlns="http://www.w3.org/2000/svg" width="20" height="20"><path fill="#4c5161" d="M298.667 128A85.333 85.333 0 0 1 384 42.667h256A85.333 85.333 0 0 1 725.333 128h128a85.333 85.333 0 0 1 85.334 85.333V896a85.333 85.333 0 0 1-85.334 85.333H170.667A85.333 85.333 0 0 1 85.333 896V213.333A85.333 85.333 0 0 1 170.667 128h128zM256 426.667A42.667 42.667 0 0 0 256 512h341.333a42.667 42.667 0 0 0 0-85.333H256zm0 170.666a42.667 42.667 0 0 0 0 85.334h426.667a42.667 42.667 0 0 0 0-85.334H256z"/></svg>